<svg xmlns="http://www.w3.org/2000/svg" viewBox="0 0 32 32" fill="none">
  <!-- Navy Background -->
  <circle cx="16" cy="16" r="16" fill="#1B2A4A"/>
  
  <!-- Stylized Butterfly (Symbol of transformation and aesthetics) -->
  <g transform="translate(6, 6)">
    <!-- Right wing -->
    <path d="M10 10C10 10 15 2 19 6C23 10 15 14 10 10Z" fill="#C9A96E"/>
    <path d="M10 10C10 10 18 13 17 18C16 23 11 18 10 10Z" fill="#C9A96E" opacity="0.8"/>
    
    <!-- Left wing -->
    <path d="M10 10C10 10 5 2 1 6C-3 10 5 14 10 10Z" fill="#C9A96E"/>
    <path d="M10 10C10 10 2 13 3 18C4 23 9 18 10 10Z" fill="#C9A96E" opacity="0.8"/>
    
    <!-- Body -->
    <rect x="9.5" y="4" width="1" height="12" rx="0.5" fill="white" opacity="0.5"/>
  </g>
</svg>
